<svg width="31" height="30" viewBox="0 0 31 30" fill="none" xmlns="http://www.w3.org/2000/svg">
<g filter="url(#filter0_d_1898_3250)">
<path d="M22.6036 5.33005C21.2736 4.71005 19.8336 4.26005 18.3336 4.00005C18.3205 3.99963 18.3074 4.00209 18.2953 4.00728C18.2832 4.01246 18.2724 4.02023 18.2636 4.03005C18.0836 4.36005 17.8736 4.79005 17.7336 5.12005C16.1426 4.88005 14.5246 4.88005 12.9336 5.12005C12.7936 4.78005 12.5836 4.36005 12.3936 4.03005C12.3836 4.01005 12.3536 4.00005 12.3236 4.00005C10.8236 4.26005 9.39361 4.71005 8.05361 5.33005C8.04361 5.33005 8.03361 5.34005 8.02361 5.35005C5.30361 9.42005 4.55361 13.38 4.92361 17.3C4.92361 17.32 4.93361 17.34 4.95361 17.35C6.75361 18.67 8.48361 19.47 10.1936 20C10.2236 20.01 10.2536 20 10.2636 19.98C10.6636 19.43 11.0236 18.85 11.3336 18.24C11.3536 18.2 11.3336 18.16 11.2936 18.15C10.7236 17.93 10.1836 17.67 9.65361 17.37C9.61361 17.35 9.61361 17.29 9.64361 17.26C9.75361 17.18 9.86361 17.09 9.97361 17.01C9.99361 16.99 10.0236 16.99 10.0436 17C13.4836 18.57 17.1936 18.57 20.5936 17C20.6136 16.99 20.6436 16.99 20.6636 17.01C20.7736 17.1 20.8836 17.18 20.9936 17.27C21.0336 17.3 21.0336 17.36 20.9836 17.38C20.4636 17.69 19.9136 17.94 19.3436 18.16C19.3036 18.17 19.2936 18.22 19.3036 18.25C19.6236 18.86 19.9836 19.44 20.3736 19.99C20.4036 20 20.4336 20.01 20.4636 20C22.1836 19.47 23.9136 18.67 25.7136 17.35C25.7336 17.34 25.7436 17.32 25.7436 17.3C26.1836 12.77 25.0136 8.84005 22.6436 5.35005C22.6336 5.34005 22.6236 5.33005 22.6036 5.33005ZM11.8536 14.91C10.8236 14.91 9.96361 13.96 9.96361 12.79C9.96361 11.62 10.8036 10.67 11.8536 10.67C12.9136 10.67 13.7536 11.63 13.7436 12.79C13.7436 13.96 12.9036 14.91 11.8536 14.91ZM18.8236 14.91C17.7936 14.91 16.9336 13.96 16.9336 12.79C16.9336 11.62 17.7736 10.67 18.8236 10.67C19.8836 10.67 20.7236 11.63 20.7136 12.79C20.7136 13.96 19.8836 14.91 18.8236 14.91Z" fill="url(#paint0_linear_1898_3250)" shape-rendering="crispEdges"/>
</g>
<defs>
<filter id="filter0_d_1898_3250" x="0.035449" y="4" width="30.5995" height="25.6039" filterUnits="userSpaceOnUse" color-interpolation-filters="sRGB">
<feFlood flood-opacity="0" result="BackgroundImageFix"/>
<feColorMatrix in="SourceAlpha" type="matrix" values="0 0 0 0 0 0 0 0 0 0 0 0 0 0 0 0 0 0 127 0" result="hardAlpha"/>
<feOffset dy="4.8"/>
<feGaussianBlur stdDeviation="2.4"/>
<feComposite in2="hardAlpha" operator="out"/>
<feColorMatrix type="matrix" values="0 0 0 0 1 0 0 0 0 1 0 0 0 0 1 0 0 0 0.12 0"/>
<feBlend mode="normal" in2="BackgroundImageFix" result="effect1_dropShadow_1898_3250"/>
<feBlend mode="normal" in="SourceGraphic" in2="effect1_dropShadow_1898_3250" result="shape"/>
</filter>
<linearGradient id="paint0_linear_1898_3250" x1="15.3352" y1="4" x2="15.3352" y2="20.0042" gradientUnits="userSpaceOnUse">
<stop stop-color="white"/>
<stop offset="1" stop-color="white" stop-opacity="0.6"/>
</linearGradient>
</defs>
</svg>
