<svg width="35" height="33" viewBox="0 0 35 33" fill="none" xmlns="http://www.w3.org/2000/svg">
<g filter="url(#filter0_d_1898_3252)">
<path d="M17.7352 1.09668C17.0902 1.09668 16.5022 1.43668 15.3282 2.11368L8.89717 5.81968C7.78959 6.44506 6.86659 7.35157 6.22135 8.44769C5.5761 9.54382 5.23144 10.7908 5.22217 12.0627V12.2987C5.23152 13.5689 5.57538 14.8143 6.21913 15.9094C6.86289 17.0045 7.78381 17.9107 8.88917 18.5367L12.9122 20.8597C15.2662 22.2197 16.4432 22.9017 17.7362 22.9017C19.0282 22.9027 20.2062 22.2237 22.5612 20.8637L26.8122 18.4107C27.9892 17.7307 28.5762 17.3907 28.8992 16.8317C29.2222 16.2717 29.2232 15.5917 29.2222 14.2317V11.6017C29.2224 11.4192 29.1746 11.2399 29.0836 11.0818C28.9926 10.9236 28.8615 10.7922 28.7037 10.7007C28.5458 10.6092 28.3667 10.5609 28.1842 10.5605C28.0017 10.5601 27.8224 10.6078 27.6642 10.6987L18.9362 15.7227C18.3492 16.0597 18.0562 16.2297 17.7352 16.2297C17.4122 16.2297 17.1192 16.0617 16.5312 15.7237L10.6272 12.3307C10.3302 12.1597 10.1812 12.0747 10.0622 12.0597C9.93068 12.0423 9.79714 12.069 9.68243 12.1356C9.56773 12.2022 9.47831 12.3049 9.42817 12.4277C9.38317 12.5387 9.38317 12.7097 9.38517 13.0527C9.38717 13.3047 9.38517 13.4307 9.41017 13.5467C9.46317 13.8057 9.59917 14.0397 9.79717 14.2137C9.88617 14.2907 9.99517 14.3537 10.2132 14.4797L16.5282 18.1297C17.1172 18.4697 17.4122 18.6397 17.7352 18.6397C18.0582 18.6397 18.3522 18.4697 18.9412 18.1307L26.6812 13.6617C26.8832 13.5457 26.9832 13.4897 27.0582 13.5317C27.1332 13.5757 27.1332 13.6917 27.1332 13.9237V15.1167C27.1332 15.4567 27.1342 15.6267 27.0532 15.7657C26.9732 15.9057 26.8262 15.9897 26.5312 16.1597L20.1492 19.8447C18.9712 20.5247 18.3822 20.8647 17.7362 20.8647C17.0902 20.8647 16.5002 20.5247 15.3242 19.8427L9.35417 16.3907L9.31117 16.3657C8.69591 16.0061 8.18502 15.4923 7.82886 14.875C7.47271 14.2578 7.28359 13.5583 7.28017 12.8457V11.6997C7.28046 11.306 7.38405 10.9193 7.58058 10.5781C7.77712 10.237 8.05972 9.9534 8.40017 9.75568C8.70132 9.58137 9.04308 9.48951 9.39103 9.48933C9.73899 9.48916 10.0808 9.58068 10.3822 9.75468L15.3282 12.6127C16.5022 13.2917 17.0902 13.6317 17.7352 13.6327C18.3802 13.6327 18.9682 13.2927 20.1452 12.6157L27.6272 8.30968C27.7933 8.21401 27.9314 8.07625 28.0273 7.91026C28.1233 7.74427 28.1738 7.55592 28.1738 7.36418C28.1738 7.17244 28.1233 6.98409 28.0273 6.8181C27.9314 6.65211 27.7933 6.51435 27.6272 6.41868L20.1422 2.10968C18.9672 1.43468 18.3802 1.09668 17.7362 1.09668H17.7352Z" fill="url(#paint0_linear_1898_3252)" shape-rendering="crispEdges"/>
</g>
<defs>
<filter id="filter0_d_1898_3252" x="0.422168" y="1.09668" width="33.6" height="31.4047" filterUnits="userSpaceOnUse" color-interpolation-filters="sRGB">
<feFlood flood-opacity="0" result="BackgroundImageFix"/>
<feColorMatrix in="SourceAlpha" type="matrix" values="0 0 0 0 0 0 0 0 0 0 0 0 0 0 0 0 0 0 127 0" result="hardAlpha"/>
<feOffset dy="4.8"/>
<feGaussianBlur stdDeviation="2.4"/>
<feComposite in2="hardAlpha" operator="out"/>
<feColorMatrix type="matrix" values="0 0 0 0 1 0 0 0 0 1 0 0 0 0 1 0 0 0 0.12 0"/>
<feBlend mode="normal" in2="BackgroundImageFix" result="effect1_dropShadow_1898_3252"/>
<feBlend mode="normal" in="SourceGraphic" in2="effect1_dropShadow_1898_3252" result="shape"/>
</filter>
<linearGradient id="paint0_linear_1898_3252" x1="17.2222" y1="1.09668" x2="17.2222" y2="22.9017" gradientUnits="userSpaceOnUse">
<stop stop-color="white"/>
<stop offset="1" stop-color="white" stop-opacity="0.6"/>
</linearGradient>
</defs>
</svg>
