<svg width="32" height="32" viewBox="0 0 32 32" fill="none" xmlns="http://www.w3.org/2000/svg">
<g filter="url(#filter0_d_1898_3256)">
<path d="M22.3552 2.25H25.6646L18.4364 10.5094L26.9396 21.75H20.2833L15.0661 14.9344L9.10361 21.75H5.78955L13.5192 12.9141L5.36768 2.25H12.1927L16.9036 8.47969L22.3552 2.25ZM21.1927 19.7719H23.0255L11.1942 4.125H9.22549L21.1927 19.7719Z" fill="black"/>
<path d="M22.3552 2.25H25.6646L18.4364 10.5094L26.9396 21.75H20.2833L15.0661 14.9344L9.10361 21.75H5.78955L13.5192 12.9141L5.36768 2.25H12.1927L16.9036 8.47969L22.3552 2.25ZM21.1927 19.7719H23.0255L11.1942 4.125H9.22549L21.1927 19.7719Z" fill="url(#paint0_linear_1898_3256)"/>
</g>
<defs>
<filter id="filter0_d_1898_3256" x="0.567676" y="2.25" width="31.1718" height="29.1" filterUnits="userSpaceOnUse" color-interpolation-filters="sRGB">
<feFlood flood-opacity="0" result="BackgroundImageFix"/>
<feColorMatrix in="SourceAlpha" type="matrix" values="0 0 0 0 0 0 0 0 0 0 0 0 0 0 0 0 0 0 127 0" result="hardAlpha"/>
<feOffset dy="4.8"/>
<feGaussianBlur stdDeviation="2.4"/>
<feComposite in2="hardAlpha" operator="out"/>
<feColorMatrix type="matrix" values="0 0 0 0 1 0 0 0 0 1 0 0 0 0 1 0 0 0 0.12 0"/>
<feBlend mode="normal" in2="BackgroundImageFix" result="effect1_dropShadow_1898_3256"/>
<feBlend mode="normal" in="SourceGraphic" in2="effect1_dropShadow_1898_3256" result="shape"/>
</filter>
<linearGradient id="paint0_linear_1898_3256" x1="16.1536" y1="2.25" x2="16.1536" y2="21.75" gradientUnits="userSpaceOnUse">
<stop stop-color="white"/>
<stop offset="1" stop-color="white" stop-opacity="0.6"/>
</linearGradient>
</defs>
</svg>
