<svg width="20" height="20" viewBox="0 0 20 20" fill="none" xmlns="http://www.w3.org/2000/svg">
<path d="M16.2887 14.961C16.4649 15.1371 16.5638 15.376 16.5638 15.6251C16.5638 15.8741 16.4649 16.113 16.2887 16.2891C16.1126 16.4652 15.8737 16.5642 15.6247 16.5642C15.3756 16.5642 15.1367 16.4652 14.9606 16.2891L10.0005 11.3274L5.03874 16.2876C4.86261 16.4637 4.62374 16.5626 4.37467 16.5626C4.1256 16.5626 3.88673 16.4637 3.71061 16.2876C3.53449 16.1114 3.43555 15.8726 3.43555 15.6235C3.43555 15.3744 3.53449 15.1356 3.71061 14.9594L8.67233 9.99928L3.71217 5.03756C3.53605 4.86144 3.43711 4.62257 3.43711 4.3735C3.43711 4.12443 3.53605 3.88556 3.71217 3.70944C3.88829 3.53332 4.12716 3.43437 4.37624 3.43437C4.62531 3.43437 4.86418 3.53332 5.0403 3.70944L10.0005 8.67116L14.9622 3.70866C15.1383 3.53254 15.3772 3.43359 15.6262 3.43359C15.8753 3.43359 16.1142 3.53254 16.2903 3.70866C16.4664 3.88478 16.5654 4.12365 16.5654 4.37272C16.5654 4.62179 16.4664 4.86066 16.2903 5.03678L11.3286 9.99928L16.2887 14.961Z" fill="white"/>
</svg>
