<svg width="16" height="16" viewBox="0 0 16 16" fill="none" xmlns="http://www.w3.org/2000/svg">
<path d="M5.33301 2.66668V10.6667C5.33301 11.0203 5.47348 11.3594 5.72353 11.6095C5.97358 11.8595 6.31272 12 6.66634 12H11.9997C12.3533 12 12.6924 11.8595 12.9425 11.6095C13.1925 11.3594 13.333 11.0203 13.333 10.6667V4.82801C13.333 4.65038 13.2975 4.47455 13.2286 4.31084C13.1596 4.14713 13.0587 3.99884 12.9317 3.87468L10.7217 1.71334C10.4726 1.46978 10.1381 1.33339 9.78967 1.33334H6.66634C6.31272 1.33334 5.97358 1.47382 5.72353 1.72387C5.47348 1.97392 5.33301 2.31305 5.33301 2.66668Z" stroke="white" stroke-width="1.33333" stroke-linecap="round" stroke-linejoin="round"/>
<path d="M10.6665 12V13.3334C10.6665 13.687 10.526 14.0261 10.276 14.2762C10.0259 14.5262 9.68679 14.6667 9.33317 14.6667H3.99984C3.64622 14.6667 3.30708 14.5262 3.05703 14.2762C2.80698 14.0261 2.6665 13.687 2.6665 13.3334V6.00002C2.6665 5.6464 2.80698 5.30726 3.05703 5.05721C3.30708 4.80716 3.64622 4.66669 3.99984 4.66669H5.33317" stroke="white" stroke-width="1.33333" stroke-linecap="round" stroke-linejoin="round"/>
</svg>
