<svg xmlns="http://www.w3.org/2000/svg" width="224" height="31" viewBox="0 0 224 31" fill="none"><path d="M1.67627 15.7441V1.41577L14.2141 1.51341C25.3641 1.61105 26.8696 1.68428 28.0223 2.05042C31.1508 3.10002 32.2564 4.68664 32.4446 8.37246C32.5858 11.4236 32.1623 13.0347 30.8215 14.2795C30.304 14.7677 29.9041 15.2071 29.9512 15.2315C29.9747 15.2559 30.4216 15.5244 30.8921 15.8418C32.3741 16.7693 32.7269 17.8921 32.7269 21.8709C32.7269 25.0441 32.6799 25.3858 32.1388 26.5331C31.4802 27.8756 30.4687 28.7544 28.728 29.4622C27.7635 29.8528 26.4462 29.9016 14.6846 29.9748L1.67627 30.0481V15.7441ZM26.0228 25.2882C26.4462 25.0929 26.9167 24.7268 27.0578 24.4583C27.1989 24.1654 27.3166 22.8229 27.3166 21.4071C27.3166 19.015 27.293 18.8441 26.705 18.2827L26.0934 17.6969L16.59 17.6236L7.08661 17.5504V21.6024V25.6299H16.143C23.4352 25.6299 25.3641 25.5567 26.0228 25.2882ZM25.4818 12.937C26.8226 12.5465 27.0813 11.9607 27.0813 9.44648C27.0813 7.49372 27.0343 7.24963 26.4933 6.71262L25.9287 6.10239H16.4959H7.08661V9.64176V13.1811H15.8608C21.1535 13.1811 24.9642 13.0835 25.4818 12.937Z" fill="white"></path><path d="M38.6079 15.7441V1.4646H41.1955H43.783V15.7441V30.0237H41.1955H38.6079V15.7441Z" fill="white"></path><path d="M62.3664 18.063V6.1024H55.3094H48.2524V3.7835V1.4646H64.9539H81.6554V3.7835V6.1024H74.716H67.7767V18.063V30.0237H65.0715H62.3664V18.063Z" fill="white"></path><path d="M85.9362 15.8174L86.0068 1.58664L88.3826 1.51341L90.782 1.44019L98.8269 12.937C103.249 19.2347 106.942 24.4095 107.013 24.3851C107.107 24.3851 110.753 19.2347 115.129 12.9126L123.103 1.46459H125.314H127.525V15.7441V30.0237H125.055H122.585L122.538 20.3819L122.468 10.7402L115.764 20.3575L109.06 29.9992H106.801L104.543 30.0237L97.7449 20.3575L90.9467 10.667L90.8761 20.3575L90.829 30.0237H88.3591H85.8892L85.9362 15.8174Z" fill="white"></path><path d="M131.218 29.3158C131.454 28.9252 135.57 22.5055 140.345 15.0363L149.049 1.48901L150.837 1.4646C152.248 1.4646 152.695 1.56224 152.977 1.90397C153.401 2.39216 170.808 29.7551 170.808 29.926C170.808 29.9748 169.467 30.0237 167.821 29.9992H164.81L157.964 18.8441C154.201 12.7174 151.025 7.68901 150.931 7.68901C150.86 7.68901 147.638 12.7174 143.803 18.8441L136.817 29.9992L133.806 30.0237H130.771L131.218 29.3158Z" fill="white"></path><path d="M174.336 15.7441V1.4646H177.042H179.747V15.7441V30.0237H177.042H174.336V15.7441Z" fill="white"></path><path d="M185.675 15.8174L185.746 1.58664L187.886 1.51341L190.05 1.44019L200.353 9.42208C206.046 13.8158 212.068 18.5024 213.785 19.8205C215.479 21.1386 216.937 22.2126 217.008 22.2126C217.078 22.2126 217.173 17.5748 217.196 11.9118L217.267 1.58664L219.572 1.51341L221.854 1.44019V15.7441V30.0237H220.513H219.149L204.799 19.137L190.45 8.27483L190.38 19.137L190.333 30.0237H187.98H185.628L185.675 15.8174Z" fill="white"></path></svg>