<svg xmlns="http://www.w3.org/2000/svg" width="190" height="48" viewBox="0 0 190 48" fill="none"><g clip-path="url(#clip0_44_1151)"><path d="M57.6157 44.0488V3.95114H70.8853C75.2857 3.95114 78.5993 4.85255 80.8185 6.65537C83.0377 8.45067 84.1473 11.1173 84.1473 14.6554C84.1473 16.5258 83.6153 18.1934 82.5285 19.6281C81.4569 21.0779 79.9901 22.1972 78.1281 22.9859C80.3245 23.5868 82.0573 24.7436 83.3341 26.4338C84.6109 28.1389 85.2341 30.1596 85.2341 32.4957C85.2341 36.0939 84.0561 38.9183 81.6925 40.969C79.3365 43.0272 76.0077 44.0488 71.6985 44.0488H57.6157ZM62.9737 25.3821V39.707H71.7973C74.2901 39.707 76.2585 39.076 77.6949 37.8065C79.1313 36.5371 79.8533 34.7868 79.8533 32.5709C79.8533 27.7784 77.2009 25.3821 71.8809 25.3821H62.9737ZM62.9737 21.0403H71.0449C73.3857 21.0403 75.2553 20.4544 76.6689 19.2976C78.0673 18.1408 78.7741 16.5784 78.7741 14.5953C78.7741 12.3868 78.1205 10.7868 76.8209 9.78776C75.5213 8.78119 73.5377 8.28541 70.8853 8.28541H62.9737V21.0403ZM115.535 33.5624H98.5265L94.7113 44.0563H89.1937L104.69 3.95114H109.372L124.891 44.0563H119.404L115.535 33.5624ZM100.153 29.2206H113.955L107.039 10.4788L100.153 29.2206ZM142.31 26.1784C137.727 24.8713 134.391 23.2638 132.293 21.3633C130.203 19.4629 129.155 17.1117 129.155 14.3249C129.155 11.1699 130.439 8.55584 132.985 6.4826C135.546 4.41687 138.86 3.38025 142.941 3.38025C145.73 3.38025 148.223 3.91358 150.397 4.98025C152.585 6.0394 154.265 7.5117 155.466 9.38964C156.667 11.2601 157.267 13.3108 157.267 15.5267H151.894C151.894 13.1004 151.111 11.1925 149.553 9.80278C147.995 8.42062 145.783 7.72203 142.941 7.72203C140.304 7.72203 138.252 8.29292 136.777 9.44222C135.295 10.599 134.558 12.184 134.558 14.2272C134.558 15.8648 135.25 17.2544 136.663 18.3812C138.062 19.5079 140.448 20.5446 143.823 21.4835C147.189 22.4225 149.834 23.4591 151.734 24.5859C153.634 25.7126 155.048 27.0272 155.967 28.5446C156.887 30.0469 157.343 31.8272 157.343 33.8629C157.343 37.1155 156.059 39.722 153.497 41.6751C150.929 43.6281 147.509 44.6047 143.215 44.6047C140.425 44.6047 137.819 44.0788 135.409 43.0272C133 41.968 131.138 40.5183 129.823 38.6854C128.509 36.8526 127.863 34.7643 127.863 32.4356H133.236C133.236 34.8544 134.14 36.7624 135.957 38.1596C137.765 39.5568 140.182 40.2629 143.215 40.2629C146.042 40.2629 148.2 39.692 149.705 38.5502C151.217 37.4159 151.97 35.861 151.97 33.9079C151.97 31.9399 151.263 30.4225 149.88 29.3483C148.504 28.2892 145.973 27.2225 142.31 26.1784ZM187.158 25.5474H169.579V39.707H190V44.0488H164.229V3.95114H189.727V8.29293H169.579V21.2056H187.158V25.5474Z" fill="white"></path><path d="M24.1908 48C37.5972 48 48.4728 37.2582 48.4728 24C48.4728 10.7493 37.6048 0 24.1908 0C11.476 0 1.0336 9.67512 0 21.9793H32.0872V26.0131H0C1.0336 38.3249 11.476 48 24.1908 48Z" fill="white"></path></g><defs><clipPath id="clip0_44_1151"><rect width="190" height="48" fill="white"></rect></clipPath></defs></svg>