<svg width="37" height="38" viewBox="0 0 37 38" fill="none" xmlns="http://www.w3.org/2000/svg">
<path d="M27.1635 26.1387L20.8302 29.7996L20.2078 30.1657L18.0845 31.4104L15.6317 32.8015L18.0479 34.1927L20.5007 32.8015L22.624 31.5568L23.2464 31.2274L29.5797 27.5665V19.5491L27.1269 18.1214V26.1387H27.1635ZM18.0845 0L6.55273 6.66281V27.5299L12.8861 31.1908L13.5084 31.5568L15.9612 30.1657L15.3389 29.7996L9.00553 26.1387V8.09056L18.0845 2.85549L27.1635 8.09056V10.3969L29.6163 11.788V6.66281L18.0845 0Z" fill="white"/>
<path d="M32.3622 15.8141L31.7399 15.448L29.6166 14.2033L27.1638 12.7756L25.0405 11.5309L24.4181 11.1648L18.0848 7.50391L11.7514 11.1648L11.1291 11.5309V14.3498L11.7514 13.9837L18.0848 10.3228L24.4181 13.9837L25.0405 14.3498L27.1638 15.5945L29.6166 17.0222L31.7399 18.2669L32.3622 18.633L33.7534 19.4384V29.9451L24.6744 35.1802L23.2832 34.3748L22.6975 34.0087L20.2447 35.3999L20.8671 35.7659L24.711 37.9991L36.2428 31.3363V18.0473L32.3622 15.8141ZM18.0848 31.3729L15.632 32.764L13.5087 34.0087L12.9229 34.3382L11.4952 35.1436L2.41619 29.9085V19.4018L3.84393 18.5964L4.46628 18.2303V15.4114L3.84393 15.7775L0 18.0106V31.2997L11.5318 37.9625L15.4123 35.7293L15.9981 35.3999L18.1214 34.1918L20.5742 32.8006L18.0848 31.3729Z" fill="white"/>
</svg>
