<svg width="32" height="41" viewBox="0 0 32 41" fill="none" xmlns="http://www.w3.org/2000/svg">
<g filter="url(#filter0_d_1769_159)">
<path d="M10.6667 17.3333V22.6667H8V25.3333H12V28H14.6667V25.3333H17.3333V28H20V25.2653C22.624 24.9333 24.6667 22.712 24.6667 20C24.6667 18.24 23.8 16.688 22.48 15.716C23.4535 14.724 23.9992 13.3899 24 12C24 9.52267 22.2947 7.452 20 6.856V4H17.3333V6.66667H14.6667V4H12V6.66667H8V9.33333H10.6667V17.3333ZM19.3333 22.6667H13.3333V17.3333H19.3333C20.804 17.3333 22 18.5293 22 20C22 21.4707 20.804 22.6667 19.3333 22.6667ZM13.3333 9.33333H18.6667C20.1373 9.33333 21.3333 10.5293 21.3333 12C21.3333 13.4707 20.1373 14.6667 18.6667 14.6667H13.3333V9.33333Z" fill="url(#paint0_linear_1769_159)"/>
</g>
<defs>
<filter id="filter0_d_1769_159" x="-6.4" y="0" width="44.8" height="44.8" filterUnits="userSpaceOnUse" color-interpolation-filters="sRGB">
<feFlood flood-opacity="0" result="BackgroundImageFix"/>
<feColorMatrix in="SourceAlpha" type="matrix" values="0 0 0 0 0 0 0 0 0 0 0 0 0 0 0 0 0 0 127 0" result="hardAlpha"/>
<feOffset dy="6.4"/>
<feGaussianBlur stdDeviation="3.2"/>
<feComposite in2="hardAlpha" operator="out"/>
<feColorMatrix type="matrix" values="0 0 0 0 1 0 0 0 0 1 0 0 0 0 1 0 0 0 0.12 0"/>
<feBlend mode="normal" in2="BackgroundImageFix" result="effect1_dropShadow_1769_159"/>
<feBlend mode="normal" in="SourceGraphic" in2="effect1_dropShadow_1769_159" result="shape"/>
</filter>
<linearGradient id="paint0_linear_1769_159" x1="16.3333" y1="4" x2="16.3333" y2="28" gradientUnits="userSpaceOnUse">
<stop stop-color="white"/>
<stop offset="1" stop-color="white" stop-opacity="0.6"/>
</linearGradient>
</defs>
</svg>
