<svg width="38" height="40" viewBox="0 0 38 40" fill="none" xmlns="http://www.w3.org/2000/svg">
<g filter="url(#filter0_d_1769_165)">
<path d="M19.0156 12.2063C18.0813 12.2063 17.2063 12.5688 16.5438 13.2313C15.8844 13.8938 15.5188 14.7688 15.5188 15.7031C15.5188 16.6375 15.8844 17.5125 16.5438 18.175C17.2063 18.8344 18.0813 19.2 19.0156 19.2C19.95 19.2 20.825 18.8344 21.4875 18.175C22.1469 17.5125 22.5125 16.6375 22.5125 15.7031C22.5125 14.7688 22.1469 13.8938 21.4875 13.2313C21.1639 12.9052 20.7788 12.6467 20.3544 12.4707C19.9301 12.2948 19.475 12.2049 19.0156 12.2063ZM31.9 19.5656L29.8563 17.8188C29.9531 17.225 30.0031 16.6188 30.0031 16.0156C30.0031 15.4125 29.9531 14.8031 29.8563 14.2125L31.9 12.4656C32.0544 12.3335 32.1649 12.1574 32.2168 11.961C32.2687 11.7645 32.2596 11.5568 32.1906 11.3657L32.1625 11.2844C31.6001 9.71156 30.7573 8.25364 29.675 6.98127L29.6188 6.91565C29.4873 6.76112 29.3122 6.65004 29.1164 6.59705C28.9206 6.54405 28.7133 6.55163 28.5219 6.61877L25.9844 7.5219C25.0469 6.75315 24.0031 6.1469 22.8719 5.72502L22.3813 3.0719C22.3442 2.87203 22.2473 2.68816 22.1033 2.54471C21.9593 2.40125 21.775 2.30501 21.575 2.26877L21.4906 2.25315C19.8656 1.9594 18.1531 1.9594 16.5281 2.25315L16.4438 2.26877C16.2438 2.30501 16.0595 2.40125 15.9155 2.54471C15.7715 2.68816 15.6745 2.87203 15.6375 3.0719L15.1438 5.73752C14.0232 6.16274 12.9794 6.76752 12.0531 7.52815L9.49689 6.61877C9.30553 6.55109 9.09811 6.54325 8.90219 6.59627C8.70626 6.6493 8.53111 6.76069 8.40002 6.91565L8.34377 6.98127C7.26341 8.25498 6.42084 9.71254 5.85627 11.2844L5.82814 11.3657C5.68752 11.7563 5.80314 12.1938 6.11877 12.4656L8.18752 14.2313C8.09064 14.8188 8.04376 15.4188 8.04376 16.0125C8.04376 16.6125 8.09064 17.2125 8.18752 17.7938L6.12502 19.5594C5.97063 19.6916 5.86013 19.8676 5.80821 20.0641C5.7563 20.2606 5.76543 20.4682 5.83439 20.6594L5.86252 20.7407C6.42814 22.3125 7.26251 23.7656 8.35001 25.0438L8.40627 25.1094C8.53768 25.2639 8.71284 25.375 8.90865 25.428C9.10445 25.481 9.31172 25.4734 9.50314 25.4063L12.0594 24.4969C12.9906 25.2625 14.0281 25.8688 15.15 26.2875L15.6438 28.9531C15.6808 29.153 15.7777 29.3369 15.9217 29.4803C16.0658 29.6238 16.25 29.72 16.45 29.7563L16.5344 29.7719C18.1754 30.0672 19.8559 30.0672 21.4969 29.7719L21.5813 29.7563C21.7813 29.72 21.9655 29.6238 22.1095 29.4803C22.2535 29.3369 22.3505 29.153 22.3875 28.9531L22.8781 26.3C24.0094 25.875 25.0531 25.2719 25.9906 24.5031L28.5281 25.4063C28.7195 25.474 28.9269 25.4818 29.1228 25.4288C29.3188 25.3757 29.4939 25.2644 29.625 25.1094L29.6813 25.0438C30.7688 23.7594 31.6031 22.3125 32.1688 20.7407L32.1969 20.6594C32.3313 20.2719 32.2156 19.8375 31.9 19.5656ZM19.0156 21.1969C15.9813 21.1969 13.5219 18.7375 13.5219 15.7031C13.5219 12.6688 15.9813 10.2094 19.0156 10.2094C22.05 10.2094 24.5094 12.6688 24.5094 15.7031C24.5094 18.7375 22.05 21.1969 19.0156 21.1969Z" fill="url(#paint0_linear_1769_165)"/>
</g>
<defs>
<filter id="filter0_d_1769_165" x="-1.8" y="0" width="41.6" height="41.6" filterUnits="userSpaceOnUse" color-interpolation-filters="sRGB">
<feFlood flood-opacity="0" result="BackgroundImageFix"/>
<feColorMatrix in="SourceAlpha" type="matrix" values="0 0 0 0 0 0 0 0 0 0 0 0 0 0 0 0 0 0 127 0" result="hardAlpha"/>
<feOffset dy="4.8"/>
<feGaussianBlur stdDeviation="2.4"/>
<feComposite in2="hardAlpha" operator="out"/>
<feColorMatrix type="matrix" values="0 0 0 0 1 0 0 0 0 1 0 0 0 0 1 0 0 0 0.12 0"/>
<feBlend mode="normal" in2="BackgroundImageFix" result="effect1_dropShadow_1769_165"/>
<feBlend mode="normal" in="SourceGraphic" in2="effect1_dropShadow_1769_165" result="shape"/>
</filter>
<linearGradient id="paint0_linear_1769_165" x1="19.0106" y1="2.03284" x2="19.0106" y2="29.9934" gradientUnits="userSpaceOnUse">
<stop stop-color="white"/>
<stop offset="1" stop-color="white" stop-opacity="0.6"/>
</linearGradient>
</defs>
</svg>
